<?xml version="1.0" encoding="UTF-8"?>
<!DOCTYPE svg PUBLIC "-//W3C//DTD SVG 1.1//EN" "http://www.w3.org/Graphics/SVG/1.1/DTD/svg11.dtd">
<svg xmlns="http://www.w3.org/2000/svg" version="1.1" width="256px" height="246px" style="shape-rendering:geometricPrecision; text-rendering:geometricPrecision; image-rendering:optimizeQuality; fill-rule:evenodd; clip-rule:evenodd" xmlns:xlink="http://www.w3.org/1999/xlink">
<g><path style="opacity:0.974" fill="#f4aab9" d="M 107.5,-0.5 C 111.833,-0.5 116.167,-0.5 120.5,-0.5C 119.991,5.48909 122.325,9.82242 127.5,12.5C 132.675,9.82242 135.009,5.48909 134.5,-0.5C 138.833,-0.5 143.167,-0.5 147.5,-0.5C 158.617,2.35741 165.784,9.35741 169,20.5C 172.806,38.2146 171.973,55.7146 166.5,73C 166.833,73.5 167.167,74 167.5,74.5C 185.637,61.0661 205.97,55.2327 228.5,57C 232.852,58.6823 236.686,61.1823 240,64.5C 243.49,69.3134 246.323,74.48 248.5,80C 244.101,82.1254 240.601,85.2921 238,89.5C 237.039,93.2256 238.539,95.3922 242.5,96C 245.894,96.7517 249.227,96.5851 252.5,95.5C 253.801,97.444 254.801,99.444 255.5,101.5C 255.5,107.167 255.5,112.833 255.5,118.5C 252.947,124.431 249.281,129.598 244.5,134C 229.455,143.069 213.122,147.569 195.5,147.5C 197.428,132.929 191.095,126.429 176.5,128C 174.253,129.277 172.253,130.777 170.5,132.5C 166.326,131.034 161.992,129.7 157.5,128.5C 156.828,127.051 156.161,125.718 155.5,124.5C 155.483,122.435 155.15,120.435 154.5,118.5C 159.197,116.822 163.197,114.156 166.5,110.5C 176.602,114.63 183.769,111.63 188,101.5C 189.087,92.9195 185.587,87.0862 177.5,84C 169.777,82.4759 164.277,85.3092 161,92.5C 160.502,95.4816 160.335,98.4816 160.5,101.5C 159.849,100.909 159.182,100.243 158.5,99.5C 154.589,101.943 150.922,104.61 147.5,107.5C 144.833,105.833 142.167,104.167 139.5,102.5C 139.5,102.167 139.5,101.833 139.5,101.5C 140.965,92.3784 142.965,83.3784 145.5,74.5C 145.043,73.7025 144.376,73.3691 143.5,73.5C 154.718,69.3772 157.884,61.7106 153,50.5C 143.522,41.7585 135.188,42.7585 128,53.5C 126.268,60.1596 127.768,65.8262 132.5,70.5C 128.576,79.6578 126.243,89.3244 125.5,99.5C 124.209,99.2627 123.209,99.596 122.5,100.5C 120.5,100.833 118.5,101.167 116.5,101.5C 114.237,96.6355 111.237,92.3021 107.5,88.5C 111.711,78.7572 109.044,71.5905 99.5,67C 95.4631,66.3933 91.4631,66.56 87.5,67.5C 81.7399,48.9711 82.2399,30.6378 89,12.5C 93.729,6.09463 99.8957,1.7613 107.5,-0.5 Z"/></g>
<g><path style="opacity:1" fill="#ea5b6f" d="M 143.5,73.5 C 139.429,73.8797 135.762,72.8797 132.5,70.5C 127.768,65.8262 126.268,60.1596 128,53.5C 135.188,42.7585 143.522,41.7585 153,50.5C 157.884,61.7106 154.718,69.3772 143.5,73.5 Z"/></g>
<g><path style="opacity:0.974" fill="#f4aab9" d="M 82.5,71.5 C 78.5001,80.999 80.8334,88.499 89.5,94C 91.8098,94.4966 94.1432,94.6633 96.5,94.5C 99.1101,99.7671 102.11,104.767 105.5,109.5C 104.167,111.5 102.833,113.5 101.5,115.5C 93.5365,114.173 85.5365,112.839 77.5,111.5C 77.7947,113.735 77.4614,115.735 76.5,117.5C 78.1297,108.918 74.7964,103.418 66.5,101C 54.0503,100.116 48.2169,105.95 49,118.5C 52.1097,127.307 58.2764,130.807 67.5,129C 70.3055,127.618 72.6388,125.784 74.5,123.5C 74.62,124.586 75.2867,125.253 76.5,125.5C 83.5469,127.012 90.5469,128.679 97.5,130.5C 98.1687,128.369 98.8354,126.369 99.5,124.5C 99.2941,128.898 99.6274,133.232 100.5,137.5C 96.5395,138.479 93.2061,140.479 90.5,143.5C 82.0696,140.528 75.2363,142.528 70,149.5C 67.2517,158.819 70.0851,165.652 78.5,170C 90.3684,171.632 96.7017,166.466 97.5,154.5C 101.144,153.345 104.477,151.678 107.5,149.5C 109.754,150.124 111.421,151.457 112.5,153.5C 111.379,159.111 110.379,164.777 109.5,170.5C 112.385,170.194 115.052,170.527 117.5,171.5C 101.663,171.183 96.4964,178.516 102,193.5C 111.358,202.07 119.692,201.07 127,190.5C 128.732,183.84 127.232,178.174 122.5,173.5C 124.922,168.06 125.922,162.394 125.5,156.5C 128.5,156.5 131.5,156.5 134.5,156.5C 139.919,165.007 145.586,173.34 151.5,181.5C 148.287,188.283 149.287,194.449 154.5,200C 159.948,204.023 165.615,204.356 171.5,201C 180.344,193.299 180.677,185.299 172.5,177C 169.392,175.241 166.059,174.408 162.5,174.5C 157.925,165.922 152.925,157.589 147.5,149.5C 148.811,146.865 150.478,144.531 152.5,142.5C 157.009,143.266 161.509,144.266 166,145.5C 166.765,145.43 167.265,145.097 167.5,144.5C 170.387,153.202 176.387,156.702 185.5,155C 188.071,153.546 190.738,152.38 193.5,151.5C 206.746,161.591 216.912,174.258 224,189.5C 229.266,206.119 224.599,219.119 210,228.5C 206.117,223.971 201.284,221.804 195.5,222C 193.522,224.497 193.022,227.331 194,230.5C 194.93,232.936 196.097,235.269 197.5,237.5C 193.273,240.441 188.94,243.108 184.5,245.5C 178.167,245.5 171.833,245.5 165.5,245.5C 150.055,235.062 138.555,221.062 131,203.5C 128.667,190.167 126.333,190.167 124,203.5C 116.445,221.062 104.945,235.062 89.5,245.5C 83.1667,245.5 76.8333,245.5 70.5,245.5C 66.0601,243.108 61.7268,240.441 57.5,237.5C 60.8194,233.374 61.9861,228.708 61,223.5C 58.8471,221.556 56.3471,221.056 53.5,222C 50.1854,223.57 47.3521,225.737 45,228.5C 30.4013,219.122 25.7346,206.122 31,189.5C 39.2235,172.536 51.0568,158.703 66.5,148C 46.3624,148.966 27.6957,144.299 10.5,134C 5.9861,129.804 2.31943,124.97 -0.5,119.5C -0.5,113.5 -0.5,107.5 -0.5,101.5C 0.199272,99.444 1.19927,97.444 2.5,95.5C 7.67657,97.203 12.5099,96.5363 17,93.5C 17.6667,92.1667 17.6667,90.8333 17,89.5C 15.6152,88.4495 14.6152,87.1161 14,85.5C 11.3806,83.7792 8.88057,81.9459 6.5,80C 9.57104,70.6033 15.2377,63.27 23.5,58C 45.1671,53.9486 64.8338,58.4486 82.5,71.5 Z"/></g>
<g><path style="opacity:0.994" fill="#ea5b6f" d="M 107.5,88.5 C 105.704,89.7927 104.037,91.2927 102.5,93C 100.564,93.813 98.5643,94.313 96.5,94.5C 94.1432,94.6633 91.8098,94.4966 89.5,94C 80.8334,88.499 78.5001,80.999 82.5,71.5C 83.5794,69.457 85.246,68.1237 87.5,67.5C 91.4631,66.56 95.4631,66.3933 99.5,67C 109.044,71.5905 111.711,78.7572 107.5,88.5 Z"/></g>
<g><path style="opacity:1" fill="#fefcfc" d="M 132.5,70.5 C 135.762,72.8797 139.429,73.8797 143.5,73.5C 144.376,73.3691 145.043,73.7025 145.5,74.5C 142.965,83.3784 140.965,92.3784 139.5,101.5C 135.034,99.7846 130.367,99.1179 125.5,99.5C 126.243,89.3244 128.576,79.6578 132.5,70.5 Z"/></g>
<g><path style="opacity:1" fill="#ea5b70" d="M 166.5,110.5 C 163.723,108.049 161.723,105.049 160.5,101.5C 160.335,98.4816 160.502,95.4816 161,92.5C 164.277,85.3092 169.777,82.4759 177.5,84C 185.587,87.0862 189.087,92.9195 188,101.5C 183.769,111.63 176.602,114.63 166.5,110.5 Z"/></g>
<g><path style="opacity:1" fill="#fefafa" d="M 107.5,88.5 C 111.237,92.3021 114.237,96.6355 116.5,101.5C 112.302,103.433 108.635,106.099 105.5,109.5C 102.11,104.767 99.1101,99.7671 96.5,94.5C 98.5643,94.313 100.564,93.813 102.5,93C 104.037,91.2927 105.704,89.7927 107.5,88.5 Z"/></g>
<g><path style="opacity:1" fill="#ffe8bc" d="M 122.5,100.5 C 123.209,99.596 124.209,99.2627 125.5,99.5C 130.367,99.1179 135.034,99.7846 139.5,101.5C 139.5,101.833 139.5,102.167 139.5,102.5C 133.989,100.79 128.323,100.123 122.5,100.5 Z"/></g>
<g><path style="opacity:1" fill="#ffcc4e" d="M 122.5,100.5 C 128.323,100.123 133.989,100.79 139.5,102.5C 142.167,104.167 144.833,105.833 147.5,107.5C 150.593,110.687 152.927,114.354 154.5,118.5C 155.15,120.435 155.483,122.435 155.5,124.5C 156.051,130.847 155.051,136.847 152.5,142.5C 150.478,144.531 148.811,146.865 147.5,149.5C 143.287,152.106 138.953,154.439 134.5,156.5C 131.5,156.5 128.5,156.5 125.5,156.5C 120.967,156.283 116.634,155.283 112.5,153.5C 111.421,151.457 109.754,150.124 107.5,149.5C 104.65,145.801 102.317,141.801 100.5,137.5C 99.6274,133.232 99.2941,128.898 99.5,124.5C 99.6997,121.37 100.366,118.37 101.5,115.5C 102.833,113.5 104.167,111.5 105.5,109.5C 108.635,106.099 112.302,103.433 116.5,101.5C 118.5,101.167 120.5,100.833 122.5,100.5 Z"/></g>
<g><path style="opacity:1" fill="#fefbfa" d="M 160.5,101.5 C 161.723,105.049 163.723,108.049 166.5,110.5C 163.197,114.156 159.197,116.822 154.5,118.5C 152.927,114.354 150.593,110.687 147.5,107.5C 150.922,104.61 154.589,101.943 158.5,99.5C 159.182,100.243 159.849,100.909 160.5,101.5 Z"/></g>
<g><path style="opacity:1" fill="#ea5c70" d="M 76.5,117.5 C 76.3964,119.703 75.7298,121.703 74.5,123.5C 72.6388,125.784 70.3055,127.618 67.5,129C 58.2764,130.807 52.1097,127.307 49,118.5C 48.2169,105.95 54.0503,100.116 66.5,101C 74.7964,103.418 78.1297,108.918 76.5,117.5 Z"/></g>
<g><path style="opacity:1" fill="#fefbfb" d="M 101.5,115.5 C 100.366,118.37 99.6997,121.37 99.5,124.5C 98.8354,126.369 98.1687,128.369 97.5,130.5C 90.5469,128.679 83.5469,127.012 76.5,125.5C 75.2867,125.253 74.62,124.586 74.5,123.5C 75.7298,121.703 76.3964,119.703 76.5,117.5C 77.4614,115.735 77.7947,113.735 77.5,111.5C 85.5365,112.839 93.5365,114.173 101.5,115.5 Z"/></g>
<g><path style="opacity:0.992" fill="#ea5a6f" d="M 195.5,147.5 C 194.833,148.833 194.167,150.167 193.5,151.5C 190.738,152.38 188.071,153.546 185.5,155C 176.387,156.702 170.387,153.202 167.5,144.5C 167.032,140.058 168.032,136.058 170.5,132.5C 172.253,130.777 174.253,129.277 176.5,128C 191.095,126.429 197.428,132.929 195.5,147.5 Z"/></g>
<g><path style="opacity:1" fill="#fef9f7" d="M 155.5,124.5 C 156.161,125.718 156.828,127.051 157.5,128.5C 161.992,129.7 166.326,131.034 170.5,132.5C 168.032,136.058 167.032,140.058 167.5,144.5C 167.265,145.097 166.765,145.43 166,145.5C 161.509,144.266 157.009,143.266 152.5,142.5C 155.051,136.847 156.051,130.847 155.5,124.5 Z"/></g>
<g><path style="opacity:1" fill="#fef9f7" d="M 100.5,137.5 C 102.317,141.801 104.65,145.801 107.5,149.5C 104.477,151.678 101.144,153.345 97.5,154.5C 96.9082,149.634 94.5749,145.967 90.5,143.5C 93.2061,140.479 96.5395,138.479 100.5,137.5 Z"/></g>
<g><path style="opacity:1" fill="#ea5b70" d="M 90.5,143.5 C 94.5749,145.967 96.9082,149.634 97.5,154.5C 96.7017,166.466 90.3684,171.632 78.5,170C 70.0851,165.652 67.2517,158.819 70,149.5C 75.2363,142.528 82.0696,140.528 90.5,143.5 Z"/></g>
<g><path style="opacity:1" fill="#fefbfb" d="M 147.5,149.5 C 152.925,157.589 157.925,165.922 162.5,174.5C 157.737,175.052 154.07,177.385 151.5,181.5C 145.586,173.34 139.919,165.007 134.5,156.5C 138.953,154.439 143.287,152.106 147.5,149.5 Z"/></g>
<g><path style="opacity:1" fill="#fefbfb" d="M 112.5,153.5 C 116.634,155.283 120.967,156.283 125.5,156.5C 125.922,162.394 124.922,168.06 122.5,173.5C 120.95,172.559 119.284,171.893 117.5,171.5C 115.052,170.527 112.385,170.194 109.5,170.5C 110.379,164.777 111.379,159.111 112.5,153.5 Z"/></g>
<g><path style="opacity:1" fill="#ea5a6f" d="M 117.5,171.5 C 119.284,171.893 120.95,172.559 122.5,173.5C 127.232,178.174 128.732,183.84 127,190.5C 119.692,201.07 111.358,202.07 102,193.5C 96.4964,178.516 101.663,171.183 117.5,171.5 Z"/></g>
<g><path style="opacity:1" fill="#ea5c70" d="M 162.5,174.5 C 166.059,174.408 169.392,175.241 172.5,177C 180.677,185.299 180.344,193.299 171.5,201C 165.615,204.356 159.948,204.023 154.5,200C 149.287,194.449 148.287,188.283 151.5,181.5C 154.07,177.385 157.737,175.052 162.5,174.5 Z"/></g>
</svg>
